<?xml version="1.0" encoding="UTF-8"?>
<svg xmlns="http://www.w3.org/2000/svg" width="100%" height="100%" viewBox="0 0 422.89 310.81" fill="currentColor">
  <path class="cls-1" d="M302.88,10c60.66,0,110.01,49.35,110.01,110,0,2.96-.13,6.05-.39,9.18-2.26,27.36-14.69,52.77-34.97,71.55-20.4,18.88-46.91,29.28-74.64,29.28s-51.31-9.25-71.2-26.22c7.72-10.16,14.02-21.37,18.69-33.23,13.51,14.09,32.28,22.3,52.5,22.3,17.43,0,34.3-6.26,47.5-17.62,13.05-11.23,21.73-26.74,24.44-43.67.61-3.85.92-7.74.92-11.58,0-40.18-32.68-72.86-72.86-72.86s-72.86,32.68-72.86,72.86c0,25.93-9.37,51.07-26.39,70.8-20.98,24.33-51.45,38.29-83.61,38.29-20.4,0-40.34-5.61-57.64-16.22l-15.23-9.33v50.14c0,22.56-15.94,41.47-37.15,46.07V120c0-2.92.13-5.92.39-9.16,2.28-27.11,14.71-52.28,34.98-70.89,20.4-18.72,46.91-29.03,74.64-29.03,26.07,0,50.82,9,70.61,25.52-7.55,10.15-13.71,21.34-18.29,33.16-13.5-13.88-32.2-21.98-52.32-21.98-17.4,0-34.25,6.2-47.44,17.45-13.06,11.14-21.75,26.53-24.48,43.36-.62,3.89-.93,7.78-.93,11.58,0,39.91,32.68,72.38,72.86,72.38s72.86-32.47,72.86-72.38c0-25.89,9.22-51.07,25.96-70.88,21.01-24.87,51.64-39.13,84.05-39.13M302.88,0c-36.73,0-69.66,16.6-91.69,42.68-17.66,20.9-28.32,47.89-28.32,77.33,0,34.45-28.14,62.38-62.86,62.38s-62.86-27.93-62.86-62.38c0-3.41.29-6.74.81-10,4.82-29.69,30.76-52.38,62.05-52.38,24.45,0,45.63,13.86,56.02,34.1,4.55-20.31,13.92-39.4,27.52-55.5.25-.3.51-.58.76-.87C182.63,14.08,152.84.92,120.01.92,57.24.92,5.57,49,.43,110c-.27,3.3-.43,6.64-.43,10h0v190.81c31.56,0,57.15-25.58,57.15-57.14v-32.28c18.29,11.21,39.83,17.69,62.87,17.69,36.45,0,69.16-16.22,91.18-41.76,17.96-20.82,28.82-47.84,28.82-77.33,0-34.72,28.14-62.86,62.86-62.86s62.86,28.14,62.86,62.86c0,3.4-.28,6.74-.8,10-4.79,29.96-30.75,52.86-62.06,52.86-24.5,0-45.71-14.03-56.08-34.48-4.63,20.34-14.18,39.43-28.03,55.48-.25.29-.51.58-.77.87,21.74,21.78,51.76,35.28,84.89,35.28,62.8,0,114.49-48.5,119.58-110,.27-3.3.42-6.63.42-10C422.89,53.83,369.05,0,302.88,0h0Z"/>
</svg>