<?xml version="1.0" encoding="UTF-8"?>
<svg id="Layer_1" xmlns="http://www.w3.org/2000/svg" width="100%" height="100%" viewBox="0 0 422.89 310.81" fill="currentColor">
  <path class="cls-1" d="M302.88,0c-36.73,0-69.66,16.6-91.69,42.68-17.66,20.9-28.32,47.89-28.32,77.33h0c0,34.45-28.14,62.38-62.86,62.38s-62.86-27.93-62.86-62.38c0-3.41.29-6.74.81-10,4.82-29.69,30.76-52.38,62.05-52.38,24.45,0,45.63,13.86,56.02,34.1,4.55-20.31,13.92-39.4,27.52-55.5.25-.3.51-.58.76-.87C182.63,14.08,152.84.92,120.01.92,57.24.92,5.57,49,.43,110c-.27,3.3-.43,6.64-.43,10h0v190.81c31.56,0,57.15-25.58,57.15-57.14v-32.28c18.29,11.21,39.83,17.69,62.87,17.69,36.45,0,69.16-16.22,91.18-41.76,17.96-20.82,28.82-47.84,28.82-77.33h0c0-34.72,28.14-62.86,62.86-62.86s62.86,28.14,62.86,62.86c0,3.4-.28,6.74-.8,10-4.79,29.96-30.75,52.86-62.06,52.86-24.5,0-45.71-14.03-56.08-34.48-4.63,20.34-14.18,39.43-28.03,55.48-.25.29-.51.58-.77.87,21.74,21.78,51.76,35.28,84.89,35.28,62.8,0,114.49-48.5,119.58-110,.27-3.3.42-6.63.42-10,0-66.17-53.84-120-120.01-120Z"/>
</svg>