<svg width="100%" height="100%" viewBox="0 0 439 539" fill="none" xmlns="http://www.w3.org/2000/svg">
<g clip-path="url(#clip0_5049_821)">
<path d="M310.88 18C371.54 18 420.89 67.35 420.89 128C420.89 130.96 420.76 134.05 420.5 137.18C418.24 164.54 405.81 189.95 385.53 208.73C365.13 227.61 338.62 238.01 310.89 238.01C283.16 238.01 259.58 228.76 239.69 211.79C247.41 201.63 253.71 190.42 258.38 178.56C271.89 192.65 290.66 200.86 310.88 200.86C328.31 200.86 345.18 194.6 358.38 183.24C371.43 172.01 380.11 156.5 382.82 139.57C383.43 135.72 383.74 131.83 383.74 127.99C383.74 87.81 351.06 55.13 310.88 55.13C270.7 55.13 238.02 87.81 238.02 127.99C238.02 153.92 228.65 179.06 211.63 198.79C190.65 223.12 160.18 237.08 128.02 237.08C107.62 237.08 87.68 231.47 70.38 220.86L55.15 211.53V261.67C55.15 284.23 39.21 303.14 18 307.74V128C18 125.08 18.13 122.08 18.39 118.84C20.67 91.73 33.1 66.56 53.37 47.95C73.77 29.23 100.28 18.92 128.01 18.92C154.08 18.92 178.83 27.92 198.62 44.44C191.07 54.59 184.91 65.78 180.33 77.6C166.83 63.72 148.13 55.62 128.01 55.62C110.61 55.62 93.76 61.82 80.57 73.07C67.51 84.21 58.82 99.6 56.09 116.43C55.47 120.32 55.16 124.21 55.16 128.01C55.16 167.92 87.84 200.39 128.02 200.39C168.2 200.39 200.88 167.92 200.88 128.01C200.88 102.12 210.1 76.94 226.84 57.13C247.85 32.26 278.48 18 310.89 18M310.88 8C274.15 8 241.22 24.6 219.19 50.68C201.53 71.58 190.87 98.57 190.87 128.01C190.87 162.46 162.73 190.39 128.01 190.39C93.29 190.39 65.15 162.46 65.15 128.01C65.15 124.6 65.44 121.27 65.96 118.01C70.78 88.32 96.72 65.63 128.01 65.63C152.46 65.63 173.64 79.49 184.03 99.73C188.58 79.42 197.95 60.33 211.55 44.23C211.8 43.93 212.06 43.65 212.31 43.36C190.63 22.08 160.84 8.92 128.01 8.92C65.24 8.92 13.57 57 8.43 118C8.16 121.3 8 124.64 8 128V318.81C39.56 318.81 65.15 293.23 65.15 261.67V229.39C83.44 240.6 104.98 247.08 128.02 247.08C164.47 247.08 197.18 230.86 219.2 205.32C237.16 184.5 248.02 157.48 248.02 127.99C248.02 93.27 276.16 65.13 310.88 65.13C345.6 65.13 373.74 93.27 373.74 127.99C373.74 131.39 373.46 134.73 372.94 137.99C368.15 167.95 342.19 190.85 310.88 190.85C286.38 190.85 265.17 176.82 254.8 156.37C250.17 176.71 240.62 195.8 226.77 211.85C226.52 212.14 226.26 212.43 226 212.72C247.74 234.5 277.76 248 310.89 248C373.69 248 425.38 199.5 430.47 138C430.74 134.7 430.89 131.37 430.89 128C430.89 61.83 377.05 8 310.88 8Z" fill="white"/>
</g>
<g clip-path="url(#clip1_5049_821)">
<path d="M128.01 520.81C67.35 520.81 18 471.46 18 410.81C18 407.85 18.13 404.76 18.39 401.63C20.65 374.27 33.08 348.86 53.36 330.08C73.76 311.2 100.27 300.8 128 300.8C155.73 300.8 179.31 310.05 199.2 327.02C191.48 337.18 185.18 348.39 180.51 360.25C167 346.16 148.23 337.95 128.01 337.95C110.58 337.95 93.71 344.21 80.51 355.57C67.46 366.8 58.78 382.31 56.07 399.24C55.46 403.09 55.15 406.98 55.15 410.82C55.15 451 87.83 483.68 128.01 483.68C168.19 483.68 200.87 451 200.87 410.82C200.87 384.89 210.24 359.75 227.26 340.02C248.24 315.69 278.71 301.73 310.87 301.73C331.27 301.73 351.21 307.34 368.51 317.95L383.74 327.28L383.74 277.14C383.74 254.58 399.68 235.67 420.89 231.07L420.89 410.81C420.89 413.73 420.76 416.73 420.5 419.97C418.22 447.08 405.79 472.25 385.52 490.86C365.12 509.58 338.61 519.89 310.88 519.89C284.81 519.89 260.06 510.89 240.27 494.37C247.82 484.22 253.98 473.03 258.56 461.21C272.06 475.09 290.76 483.19 310.88 483.19C328.28 483.19 345.13 476.99 358.32 465.74C371.38 454.6 380.07 439.21 382.8 422.38C383.42 418.49 383.73 414.6 383.73 410.8C383.73 370.89 351.05 338.42 310.87 338.42C270.69 338.42 238.01 370.89 238.01 410.8C238.01 436.69 228.79 461.87 212.05 481.68C191.04 506.55 160.41 520.81 128 520.81M128.01 530.81C164.74 530.81 197.67 514.21 219.7 488.13C237.36 467.23 248.02 440.24 248.02 410.8C248.02 376.35 276.16 348.42 310.88 348.42C345.6 348.42 373.74 376.35 373.74 410.8C373.74 414.21 373.45 417.54 372.93 420.8C368.11 450.49 342.17 473.18 310.88 473.18C286.43 473.18 265.25 459.32 254.86 439.08C250.31 459.39 240.94 478.48 227.34 494.58C227.09 494.88 226.83 495.16 226.58 495.45C248.26 516.73 278.05 529.89 310.88 529.89C373.65 529.89 425.32 481.81 430.46 420.81C430.73 417.51 430.89 414.17 430.89 410.81L430.89 220C399.33 220 373.74 245.58 373.74 277.14L373.74 309.42C355.45 298.21 333.91 291.73 310.87 291.73C274.42 291.73 241.71 307.95 219.69 333.49C201.73 354.31 190.87 381.33 190.87 410.82C190.87 445.54 162.73 473.68 128.01 473.68C93.29 473.68 65.15 445.54 65.15 410.82C65.15 407.42 65.43 404.08 65.95 400.82C70.74 370.86 96.7 347.96 128.01 347.96C152.51 347.96 173.72 361.99 184.09 382.44C188.72 362.1 198.27 343.01 212.12 326.96C212.37 326.67 212.63 326.38 212.89 326.09C191.15 304.31 161.13 290.81 128 290.81C65.2 290.81 13.51 339.31 8.42002 400.81C8.15002 404.11 8.00001 407.44 8.00001 410.81C8 476.98 61.84 530.81 128.01 530.81Z" fill="white"/>
</g>
<defs>
<clipPath id="clip0_5049_821">
<rect width="422.89" height="310.81" fill="white" transform="translate(8 8)"/>
</clipPath>
<clipPath id="clip1_5049_821">
<rect width="422.89" height="310.81" fill="white" transform="translate(430.89 530.81) rotate(-180)"/>
</clipPath>
</defs>
</svg>
