<?xml version="1.0" standalone="no"?>
<!DOCTYPE svg PUBLIC "-//W3C//DTD SVG 20010904//EN"
 "http://www.w3.org/TR/2001/REC-SVG-20010904/DTD/svg10.dtd">
<svg version="1.0" xmlns="http://www.w3.org/2000/svg"
 width="700.000000pt" height="700.000000pt" viewBox="0 0 700.000000 700.000000"
 preserveAspectRatio="xMidYMid meet">
<metadata>
Created by potrace 1.14, written by Peter Selinger 2001-2017
</metadata>
<g transform="translate(0.000000,700.000000) scale(0.100000,-0.100000)"
fill="#000000" stroke="none">
<path d="M4857 5674 c-1 -1 -36 -5 -77 -8 -286 -20 -601 -129 -861 -298 -291
-190 -548 -496 -686 -818 -60 -141 -115 -327 -129 -444 -3 -22 -7 -43 -9 -46
-3 -4 -7 -63 -10 -131 -12 -274 -25 -352 -83 -489 -40 -97 -65 -138 -138 -230
-237 -301 -649 -433 -1024 -329 -407 113 -697 477 -713 893 -14 374 183 715
516 891 163 86 295 116 492 110 199 -5 350 -53 509 -160 124 -83 246 -212 310
-326 l19 -34 22 85 c67 248 181 477 342 692 l74 97 -42 38 c-23 21 -47 43 -53
48 -141 129 -401 276 -616 348 -208 70 -356 92 -610 92 -186 0 -255 -7 -405
-41 -790 -178 -1385 -865 -1442 -1664 -4 -52 -7 -770 -7 -1595 l0 -1500 72 3
c194 7 403 103 555 255 136 136 226 312 253 497 4 25 7 174 8 332 0 159 3 288
6 288 3 0 62 -29 132 -64 163 -82 383 -156 513 -171 27 -4 52 -8 56 -11 12 -7
178 -18 274 -18 506 2 971 196 1330 558 255 257 446 619 500 946 3 19 7 46 10
60 10 55 15 111 20 235 10 220 30 318 99 469 90 196 284 383 491 473 214 93
473 105 695 32 247 -81 452 -258 568 -491 68 -136 106 -299 103 -443 -1 -58
-11 -167 -16 -176 -2 -3 -7 -21 -10 -39 -27 -153 -134 -340 -272 -475 -380
-372 -984 -369 -1364 8 -63 63 -143 166 -176 230 -7 14 -14 2 -31 -62 -68
-253 -203 -518 -371 -725 l-55 -69 57 -53 c157 -146 397 -296 591 -369 80 -30
259 -81 316 -90 25 -4 56 -9 70 -12 111 -20 439 -26 525 -8 17 3 68 12 115 21
523 93 1012 448 1277 929 95 173 169 374 199 545 3 14 6 30 9 37 19 54 28 435
12 541 -16 112 -19 130 -42 222 -169 673 -697 1198 -1365 1360 -111 27 -143
33 -258 46 -55 6 -270 12 -275 8z"/>
</g>
</svg>
